HIERARCHY
ROOT root
{
	OFFSET 0.000000 0.000000 0.000000
	CHANNELS 6 Xposition Yposition Zposition Zrotation Yrotation Xrotation
	JOINT lhip
	{
		OFFSET 0.058581 -0.082280 -0.017664
		CHANNELS 3 Zrotation Yrotation Xrotation
		JOINT lknee
		{
			OFFSET 0.043451 -0.386469 0.008037
			CHANNELS 3 Zrotation Yrotation Xrotation
			JOINT lankle
			{
				OFFSET -0.014790 -0.426874 -0.037428
				CHANNELS 3 Zrotation Yrotation Xrotation
				JOINT ltoe
				{
					OFFSET 0.041054 -0.060286 0.122042
					CHANNELS 3 Zrotation Yrotation Xrotation
					End Site
					{
						OFFSET 0.000000 0.000000 0.000000
					}
				}
			}
		}
	}
	JOINT rhip
	{
		OFFSET -0.060310 -0.090513 -0.013543
		CHANNELS 3 Zrotation Yrotation Xrotation
		JOINT rknee
		{
			OFFSET -0.043257 -0.383688 -0.004843
			CHANNELS 3 Zrotation Yrotation Xrotation
			JOINT rankle
			{
				OFFSET 0.019056 -0.420046 -0.034562
				CHANNELS 3 Zrotation Yrotation Xrotation
				JOINT rtoe
				{
					OFFSET -0.034840 -0.062106 0.130323
					CHANNELS 3 Zrotation Yrotation Xrotation
					End Site
					{
						OFFSET 0.000000 0.000000 0.000000
					}
				}
			}
		}
	}
	JOINT lowerback
	{
		OFFSET 0.004439 0.124404 -0.038385
		CHANNELS 3 Zrotation Yrotation Xrotation
		JOINT upperback
		{
			OFFSET 0.004488 0.137956 0.026820
			CHANNELS 3 Zrotation Yrotation Xrotation
			JOINT chest
			{
				OFFSET -0.002265 0.056032 0.002855
				CHANNELS 3 Zrotation Yrotation Xrotation
				JOINT lowerneck
				{
					OFFSET -0.013390 0.211636 -0.033468
					CHANNELS 3 Zrotation Yrotation Xrotation
					JOINT upperneck
					{
						OFFSET 0.010113 0.088937 0.050410
						CHANNELS 3 Zrotation Yrotation Xrotation
						End Site
						{
							OFFSET 0.000000 0.000000 0.000000
						}
					}
				}
				JOINT lclavicle
				{
					OFFSET 0.071702 0.114000 -0.018898
					CHANNELS 3 Zrotation Yrotation Xrotation
					JOINT lshoulder
					{
						OFFSET 0.122921 0.045205 -0.019046
						CHANNELS 3 Zrotation Yrotation Xrotation
						JOINT lelbow
						{
							OFFSET 0.255332 -0.015649 -0.022946
							CHANNELS 3 Zrotation Yrotation Xrotation
							JOINT lwrist
							{
								OFFSET 0.265709 0.012698 -0.007375
								CHANNELS 3 Zrotation Yrotation Xrotation
								End Site
								{
									OFFSET 0.000000 0.000000 0.000000
								}
							}
						}
					}
				}
				JOINT rclavicle
				{
					OFFSET -0.082954 0.112472 -0.023707
					CHANNELS 3 Zrotation Yrotation Xrotation
					JOINT rshoulder
					{
						OFFSET -0.113228 0.046853 -0.008472
						CHANNELS 3 Zrotation Yrotation Xrotation
						JOINT relbow
						{
							OFFSET -0.260127 -0.014369 -0.031269
							CHANNELS 3 Zrotation Yrotation Xrotation
							JOINT rwrist
							{
								OFFSET -0.269108 0.006794 -0.006027
								CHANNELS 3 Zrotation Yrotation Xrotation
								End Site
								{
									OFFSET 0.000000 0.000000 0.000000
								}
							}
						}
					}
				}
			}
		}
	}
}
MOTION
Frames: 8
Frame Time: 0.033333
-0.279670 -1.136380 0.950982 -178.091288 0.354929 94.735635 6.627483 5.022045 -3.517943 -3.178579 4.844383 63.930172 2.840690 16.919783 -9.403677 0.000000 -0.000000 0.000000 2.043784 7.473339 -32.898353 6.244908 -10.304328 42.403390 1.482427 -6.566802 -21.882321 0.000000 -0.000000 0.000000 0.269036 -5.768821 18.485620 1.919456 1.221730 -9.186467 -0.031292 -4.166762 1.812721 -0.698957 2.766266 -10.666230 -3.024396 2.023848 2.085122 -26.160634 6.737944 -1.531011 -51.652691 -8.778904 14.084935 11.306531 -83.870311 13.111938 19.141576 -9.498173 -7.982365 25.256068 -4.204331 -3.920956 45.033020 -3.672295 16.562925 0.284845 45.377755 10.104689 -11.292721 6.613309 -8.824968 
-0.282738 -1.056458 0.949020 179.397146 0.372546 95.176413 7.714769 4.852199 -16.357137 -0.418267 8.446378 72.333695 3.281121 16.110645 -18.020455 0.000000 -0.000000 0.000000 3.657143 5.244868 -25.541647 7.097788 -7.400269 40.446589 0.593215 -4.641443 -26.505234 0.000000 -0.000000 0.000000 0.896669 -2.456945 19.696252 1.474954 1.870248 -8.994171 -0.459887 -1.949315 0.575097 -0.955380 1.559175 -11.282729 -4.069692 -0.229782 1.104009 -25.500939 9.526442 -1.522417 -52.296189 -4.521666 11.811951 -9.596007 -83.524787 34.245750 18.802963 -9.753964 -7.969934 23.950801 -2.797597 -2.863396 48.041206 2.411439 14.834601 -4.183904 50.652500 5.799776 -11.079804 6.394942 -9.029843 
-0.285600 -0.973648 0.953473 178.521665 -0.852640 95.318827 7.170422 2.108713 -28.407900 0.165641 11.354156 72.052776 3.854671 16.130940 -21.642883 0.000000 -0.000000 0.000000 4.108165 2.207174 -17.622455 7.504894 -2.041947 38.086973 1.456654 -5.087632 -28.542590 0.000000 -0.000000 0.000000 -0.844036 1.194263 19.629184 1.832730 1.270948 -10.028754 -0.582941 -0.366082 2.065861 -0.149599 1.080998 -12.518330 -4.268941 -3.380511 1.835902 -24.333050 12.478012 -1.828663 -51.778844 -0.764919 11.151889 -32.076320 -84.665091 55.991663 20.455689 -9.197243 -11.387916 23.859644 -2.221583 -4.350848 49.387731 7.014822 15.251927 -11.072180 57.239721 -1.962546 -13.555876 6.131808 -11.302228 
-0.288952 -0.839992 0.967987 178.947244 -3.597260 96.129651 6.198623 -4.057404 -41.061001 0.603778 16.466496 56.891059 4.607300 16.610017 -23.316226 0.000000 -0.000000 0.000000 2.924843 -1.585948 -3.925472 5.084175 4.814017 30.193908 4.118471 -4.609891 -24.282198 0.000000 -0.000000 0.000000 -4.249460 6.917800 15.638154 2.202173 -0.623743 -9.401979 -0.690483 0.645664 3.533815 1.219373 0.246404 -10.992508 -3.782176 -8.186392 2.897916 -22.336220 15.843534 -1.870005 -48.879678 3.357432 12.692377 -48.628096 -84.052904 71.088013 24.051320 -8.192946 -12.838869 24.447255 -3.758468 -7.585268 49.610557 10.712265 17.346715 -22.412795 65.916232 -12.390473 -16.383141 6.035102 -12.657619 
-0.290841 -0.793022 0.974031 179.564517 -4.278546 96.608218 5.972682 -6.408600 -43.214117 -0.546897 16.840669 47.935112 4.867747 16.678537 -23.010101 0.000000 -0.000000 0.000000 2.295721 -2.058657 0.440725 4.382041 5.423163 26.991448 5.444440 -4.827094 -19.715877 0.000000 -0.000000 0.000000 -4.847877 8.138487 14.567323 1.966509 -1.083432 -9.676133 -0.730113 0.693712 3.152459 1.227200 -0.503423 -9.108716 -3.125722 -9.030227 2.911084 -21.571575 16.461721 -1.474529 -47.888011 4.415820 13.134507 -47.267193 -83.282287 69.336118 24.212577 -8.919496 -12.781908 24.179598 -4.469229 -7.825166 49.618865 10.686868 17.694628 -24.860559 68.407282 -13.567871 -16.776555 7.330236 -11.795588 
-0.295197 -0.696943 0.985869 -179.348347 -5.542807 96.941163 4.162747 -11.095872 -42.306275 -2.818076 13.292913 25.182257 4.863589 15.710419 -20.474278 0.000000 -0.000000 0.000000 0.385924 -3.097971 7.739862 4.184392 6.106196 23.237232 8.398037 -5.079544 -6.063269 0.000000 -0.000000 0.000000 -6.107360 10.307974 9.634351 1.646341 -2.106709 -5.948350 -1.009450 0.741353 2.376571 1.730127 -2.056461 -5.378130 -2.021681 -10.385030 2.023398 -20.867173 16.801976 -0.988779 -45.836723 4.358489 14.042836 -38.132414 -81.491072 58.470803 23.691571 -10.600434 -12.027395 24.232361 -5.377161 -8.124994 49.609043 10.760711 18.703663 -29.648834 71.417240 -17.620461 -16.997696 9.625099 -9.220617 
-0.298048 -0.602272 0.995083 -178.550838 -4.961554 96.908741 3.103330 -12.539803 -40.138924 -3.519518 7.732058 10.243076 4.598058 14.782059 -17.372272 0.000000 -0.000000 0.000000 -0.278680 -4.956045 10.828991 4.952333 5.043861 25.608072 9.404297 -6.720023 8.747852 0.000000 -0.000000 0.000000 -6.320881 11.388559 6.016085 1.652377 -2.600214 -3.101446 -0.686330 0.625508 0.799659 1.823130 -3.492052 -2.094964 -0.616630 -10.221888 2.015644 -21.302466 16.189230 -0.687205 -43.767627 4.756252 14.420797 -34.466343 -79.967459 52.707996 25.323467 -10.527708 -11.910138 24.618397 -5.411211 -7.320824 48.720656 9.397470 19.051840 -27.703469 72.538755 -17.100212 -17.383086 10.207821 -9.576813 
-0.301035 -0.509407 0.997969 -178.305172 -3.879693 96.046859 2.300857 -12.435699 -37.639500 -4.754276 2.196314 7.939476 2.435821 14.041787 -18.084560 0.000000 -0.000000 0.000000 -0.524353 -5.576442 11.114081 5.825534 2.168764 34.158521 8.535610 -9.559647 13.369803 0.000000 -0.000000 0.000000 -6.506326 11.380819 4.230446 2.221355 -2.574404 -1.093949 -0.304711 0.355841 -0.690754 2.803454 -4.258215 -0.583100 -0.033942 -9.608391 2.154472 -23.315134 14.891600 -0.873161 -41.162569 4.974675 14.826685 -30.993629 -79.724347 47.490250 26.285291 -10.032943 -11.707848 26.616026 -4.682146 -6.271979 46.221375 7.459304 19.266867 -19.320177 71.071501 -11.552912 -17.120454 9.473813 -11.330350 
